<?xml version="1.0" encoding="utf-8"?>
<!-- Generator: Adobe Illustrator 19.2.1, SVG Export Plug-In . SVG Version: 6.00 Build 0)  -->
<svg version="1.1" id="Layer_3" xmlns="http://www.w3.org/2000/svg" xmlns:xlink="http://www.w3.org/1999/xlink" x="0px" y="0px"
	 width="215.7986px" height="280px" viewBox="0 0 215.7986 280" enable-background="new 0 0 215.7986 280" xml:space="preserve">
<polygon fill="#8B9BB6" points="207.5186,237.0473 207.5186,250.5955 203.1198,271.72 202.2918,271.72 198.6693,247.4077 
	17.326,246.8695 12.6685,269.6499 11.2919,269.6499 8.28,250.7094 8.3939,237.0473 "/>
<path fill="#8B9BB6" d="M116.4484,208.8434H99.3501c0.9315-3.8606,4.4091-6.7275,8.5492-6.7275
	C112.0393,202.1159,115.5169,204.9828,116.4484,208.8434z"/>
<path fill="#4FBC85" d="M198.0379,107.9614v72.1606h-89.1036v-55.8903h-2.07v55.8903H16.8706V16.5912h86.6507
	c0.3001-2.7428,0.6624-5.4855,1.0867-8.2283L10.319,9.8015L8.4353,232.9073h199.0832V110.7456
	C204.3825,109.7106,201.2153,108.7791,198.0379,107.9614z M198.0379,228.7672H16.8706V182.192h181.1674V228.7672z M112.1739,14.0037
	c-2.0493,15.6078-2.2563,31.3814-0.59,46.9996c1.4179,13.2791,4.1814,26.4444,8.2387,39.206
	c12.9893-3.4466,26.3305-5.2268,39.7131-5.2992c0.3105,0,0.6313-0.0104,0.9315-0.0104c12.6892,0,25.2542,1.5215,37.55,4.523
	L112.1739,14.0037z"/>
<path fill="#8B9BB6" d="M127.9266,106.7712c-3.3534,8.0109-11.2401,13.3205-20.0273,13.3205
	c-11.9854,0-21.7351-9.7498-21.7351-21.7351c0-11.0436,8.2593-20.3172,19.2097-21.5799l0.1242-0.0103
	c0.0311,0.1656,0.0621,0.3208,0.0932,0.4864c0.1449,0.828,0.3001,1.6663,0.4657,2.4943c0.1864,0.9626,0.383,1.9148,0.5797,2.867
	c0.0207,0.0828,0.031,0.1759,0.0621,0.2588c0.2173,1.0661,0.445,2.1217,0.7038,3.1775c0.1138,0.5382,0.238,1.0764,0.3622,1.6042
	c0.0725,0.3105,0.1449,0.6107,0.2277,0.9108c0.2484,1.0867,0.5175,2.1735,0.8073,3.2499c0.2795,1.0971,0.5692,2.1942,0.8694,3.281
	c0.1656,0.6003,0.3415,1.2006,0.5175,1.8009c0.2173,0.7866,0.445,1.5629,0.6831,2.3495c0.3622,1.2317,0.7452,2.453,1.1385,3.6743
	c0.383,1.2317,0.7866,2.453,1.2006,3.664l1.273,3.757l3.8088-1.1074c0.8281-0.2381,1.656-0.4761,2.484-0.7039
	c0.7763-0.2173,1.5421-0.414,2.3184-0.6106c0.7038-0.1863,1.4179-0.3622,2.1217-0.5279c0.3209-0.0828,0.6314-0.1553,0.9523-0.2277
	c0.4968-0.1139,0.9832-0.2277,1.48-0.3416C127.7403,106.8022,127.8335,106.7815,127.9266,106.7712z"/>
<path d="M102.5483,27.9659c0.1449-2.4116,0.3208-4.8232,0.5485-7.2347C102.8588,23.1427,102.6829,25.5543,102.5483,27.9659z
	 M102.5587,52.1332c0,0.1449,0.0103,0.2898,0.0207,0.445c0.0104,0.2381,0.0311,0.4658,0.0414,0.7039
	c0.0103,0.238,0.031,0.4657,0.0517,0.7038C102.6311,53.3649,102.5897,52.7542,102.5587,52.1332z M102.538,51.7503
	c-0.0311-0.6003-0.0725-1.2006-0.1035-1.8009c0.0104,0.1656,0.0104,0.3312,0.0207,0.5071c0.0207,0.5589,0.0517,1.1075,0.1035,1.6767
	C102.5483,51.9987,102.538,51.8745,102.538,51.7503z M102.362,48.1485c-0.0104-0.1138-0.0207-0.2277-0.0207-0.3416
	c0.0104,0.4347,0.031,0.8591,0.0517,1.2938C102.3827,48.7798,102.3723,48.4693,102.362,48.1485z M102.2171,43.0459
	c0,0.2898,0,0.5796,0.0104,0.8694c0-0.0103,0.0104-0.031,0.0104-0.0517C102.2378,43.5841,102.2275,43.315,102.2171,43.0459z"/>
<path d="M109.8451,0L2.1011,1.6457L0,250.9888v0.3416L4.2332,277.93h15.1835l4.6575-22.7598l167.4535,0.4968L195.1502,280h14.6971
	l5.9513-28.5558V105.436L109.8451,0z M112.1739,14.0037l85.8433,85.4189c-12.2959-3.0015-24.8608-4.523-37.55-4.523
	c-0.3001,0-0.621,0.0104-0.9315,0.0104c-13.3826,0.0725-26.7238,1.8526-39.7131,5.2992
	c-4.0573-12.7616-6.8207-25.9269-8.2387-39.206C109.9176,45.385,110.1246,29.6115,112.1739,14.0037z M193.8979,106.9471v69.0349
	h-80.8236v-52.2781c8.4042-1.7181,15.5354-7.5452,18.806-15.6493l0.9005-2.277c8.839-1.6767,17.8125-2.5358,26.8067-2.5875
	C171.1485,103.1072,182.6371,104.37,193.8979,106.9471z M105.4981,76.7664c0.0311,0.1656,0.0621,0.3208,0.0932,0.4864
	c0.1449,0.828,0.3001,1.6663,0.4657,2.4943c0.1864,0.9626,0.383,1.9148,0.5797,2.867c0.0207,0.0828,0.031,0.1759,0.0621,0.2588
	c0.2173,1.0661,0.445,2.1217,0.7038,3.1775c0.1138,0.5382,0.238,1.0764,0.3622,1.6042c0.0725,0.3105,0.1449,0.6107,0.2277,0.9108
	c0.2484,1.0867,0.5175,2.1735,0.8073,3.2499c0.2795,1.0971,0.5692,2.1942,0.8694,3.281c0.1656,0.6003,0.3415,1.2006,0.5175,1.8009
	c0.2173,0.7866,0.445,1.5629,0.6831,2.3495c0.3622,1.2317,0.7452,2.453,1.1385,3.6743c0.383,1.2317,0.7866,2.453,1.2006,3.664
	l1.273,3.757l3.8088-1.1074c0.8281-0.2381,1.656-0.4761,2.484-0.7039c0.7763-0.2173,1.5421-0.414,2.3184-0.6106
	c0.7038-0.1863,1.4179-0.3622,2.1217-0.5279c0.3209-0.0828,0.6314-0.1553,0.9523-0.2277c0.4968-0.1139,0.9832-0.2277,1.48-0.3416
	c0.0931-0.0207,0.1863-0.0414,0.2794-0.0621v0.0104c-3.3534,8.0109-11.2401,13.3205-20.0273,13.3205
	c-11.9854,0-21.7351-9.7498-21.7351-21.7351c0-11.0436,8.2593-20.3172,19.2097-21.5799L105.4981,76.7664z M102.7553,72.9989
	c-11.9647,2.4012-20.7312,12.9479-20.7312,25.3576c0,12.4925,8.901,22.946,20.7001,25.3576v52.2678H21.0106V20.7312h82.0863
	c-0.2277,2.4115-0.4037,4.8231-0.5485,7.2347c-0.0932,1.6042-0.1656,3.2189-0.2277,4.8335
	c-0.0207,0.797-0.0517,1.6042-0.0725,2.4116c-0.0103,0.8073-0.031,1.6146-0.0414,2.4116c-0.0104,0.8176-0.0104,1.6456-0.0104,2.4633
	v0.7038c0,0.4864,0.0104,0.9625,0.0104,1.4386c0.0104,0.2795,0.0104,0.5486,0.0104,0.8177
	c0.0104,0.2691,0.0207,0.5382,0.0207,0.8176c0,0.0207-0.0104,0.0414-0.0104,0.0517c0,0.0104,0,0.0104,0,0.0104
	c0,0.0104,0,0.0104,0,0.0207s0,0.0104,0,0.0207c0,0.0517,0,0.1035,0.0104,0.1656c0.0103,0.5175,0.0207,1.035,0.031,1.5421
	c0.0207,0.7142,0.0517,1.4283,0.0725,2.1321c0,0.1138,0.0104,0.2277,0.0207,0.3416c0.0103,0.3209,0.0207,0.6313,0.031,0.9522
	c0.0104,0.1656,0.0207,0.3416,0.0207,0.5071c0.0104,0.0621,0.0104,0.1242,0.0104,0.1863c0.0103,0.0518,0.0103,0.1035,0.0103,0.1553
	c0.0311,0.6003,0.0725,1.2006,0.1035,1.8009c0,0.1242,0.0104,0.2484,0.0207,0.3829c0.031,0.621,0.0724,1.2317,0.1138,1.8527
	c0,0.0725,0,0.1449,0.0104,0.2173c0.0414,0.5486,0.0828,1.0868,0.1242,1.6353c0,0.0621,0.0104,0.1242,0.0104,0.1863
	c0.1449,1.9562,0.3311,3.902,0.5382,5.8582c0.1449,1.3144,0.2898,2.6289,0.4554,3.9434c0.0932,0.7038,0.1863,1.4076,0.2795,2.1114
	c0.0931,0.7038,0.1967,1.4076,0.3001,2.1114c0.0621,0.4347,0.1346,0.8694,0.1966,1.2938c0.0725,0.4347,0.1346,0.8694,0.207,1.3041
	L102.7553,72.9989z M207.5186,250.5955l-4.3988,21.1245h-0.828l-3.6225-24.3123L17.326,246.8695l-4.6575,22.7805h-1.3766
	L8.28,250.7094l0.1138-13.6621h199.1247V250.5955z M207.5186,232.9073H8.4353L10.319,9.8015l94.289-1.4387
	c-0.4244,2.7428-0.7866,5.4855-1.0867,8.2283H16.8706V180.122h89.9937v-55.8903h2.07v55.8903h89.1036v-72.1606
	c3.1774,0.8177,6.3445,1.7492,9.4806,2.7842V232.9073z"/>
<path fill="#FBFAFB" d="M193.8979,106.9471v69.0349h-80.8236v-52.2781c8.4042-1.7181,15.5354-7.5452,18.806-15.6493l0.9005-2.277
	c8.839-1.6767,17.8125-2.5358,26.8067-2.5875C171.1485,103.1072,182.6371,104.37,193.8979,106.9471z"/>
<path fill="#FBFAFB" d="M82.0242,98.3566c0,12.4925,8.901,22.946,20.7001,25.3576v52.2678H21.0106V20.7312h82.0863
	c-0.238,2.4115-0.414,4.8231-0.5485,7.2347c-0.0932,1.6042-0.1656,3.2189-0.2277,4.8335c-0.0207,0.797-0.0517,1.6042-0.0725,2.4116
	c-0.0103,0.8073-0.031,1.6146-0.0414,2.4116c-0.0104,0.8176-0.0104,1.6456-0.0104,2.4633v0.7038
	c0,0.4864,0.0104,0.9625,0.0104,1.4386c0.0104,0.2795,0.0104,0.5486,0.0104,0.8177c0,0.2898,0,0.5796,0.0104,0.8694
	c0,0.0104,0,0.0104,0,0.0104c0,0.0104,0,0.0104,0,0.0207s0,0.0104,0,0.0207c0,0.0517,0,0.1035,0.0104,0.1656
	c0.0103,0.5175,0.0207,1.035,0.031,1.5421c0.0207,0.7142,0.0517,1.4283,0.0725,2.1321c0.0104,0.4347,0.031,0.8591,0.0517,1.2938
	c0.0104,0.1656,0.0207,0.3416,0.0207,0.5071c0.0104,0.0621,0.0104,0.1242,0.0104,0.1863c0.0103,0.0518,0.0103,0.1035,0.0103,0.1553
	c0.0104,0.1656,0.0104,0.3312,0.0207,0.5071c0.0207,0.5589,0.0517,1.1075,0.1035,1.6767c0,0.1449,0.0103,0.2898,0.0207,0.445
	c0.0104,0.2381,0.0311,0.4658,0.0414,0.7039c0.0103,0.238,0.031,0.4657,0.0517,0.7038c0,0.0725,0,0.1449,0.0104,0.2173
	c0.0414,0.5486,0.0828,1.0868,0.1242,1.6353c0,0.0621,0.0104,0.1242,0.0104,0.1863c0.1449,1.9562,0.3311,3.902,0.5382,5.8582
	c0.1449,1.3144,0.2898,2.6289,0.4554,3.9434c0.0932,0.7038,0.1863,1.4076,0.2795,2.1114c0.0931,0.7038,0.1967,1.4076,0.3001,2.1114
	c0.0621,0.4347,0.1346,0.8694,0.1966,1.2938c0.0725,0.4347,0.1346,0.8694,0.207,1.3041l-2.0389,0.3519
	C90.7906,75.4002,82.0242,85.9469,82.0242,98.3566z"/>
<polygon fill="none" points="207.5186,237.0473 207.5186,250.5955 203.1198,271.72 202.2918,271.72 198.6693,247.4077 
	17.326,246.8695 12.6685,269.6499 11.2919,269.6499 8.28,250.7094 8.3939,237.0473 "/>
<path fill="none" d="M102.2378,43.8635c0,0.0207-0.0104,0.0414-0.0104,0.0517c-0.0104-0.2898-0.0104-0.5796-0.0104-0.8694
	C102.2275,43.315,102.2378,43.5841,102.2378,43.8635z"/>
<path fill="none" d="M102.3931,49.1007c-0.0207-0.4347-0.0414-0.8591-0.0517-1.2938c0,0.1138,0.0104,0.2277,0.0207,0.3416
	C102.3723,48.4693,102.3827,48.7798,102.3931,49.1007z"/>
<path fill="none" d="M102.5587,52.1332c-0.0518-0.5692-0.0828-1.1178-0.1035-1.6767c0.0311,0.4244,0.0517,0.8591,0.0828,1.2938
	C102.538,51.8745,102.5483,51.9987,102.5587,52.1332z"/>
<path fill="none" d="M103.0969,20.7312c-0.2277,2.4115-0.4037,4.8231-0.5485,7.2347
	C102.6829,25.5543,102.8588,23.1427,103.0969,20.7312z"/>
<path fill="none" d="M127.9266,106.7608v0.0104c-3.3534,8.0109-11.2401,13.3205-20.0273,13.3205
	c-11.9854,0-21.7351-9.7498-21.7351-21.7351c0-11.0436,8.2593-20.3172,19.2097-21.5799l0.1242-0.0103
	c0.0311,0.1656,0.0621,0.3208,0.0932,0.4864c0.1449,0.828,0.3001,1.6663,0.4657,2.4943c0.1864,0.9626,0.383,1.9148,0.5797,2.867
	c0.0207,0.0828,0.031,0.1759,0.0621,0.2588c0.2173,1.0661,0.445,2.1217,0.7038,3.1775c0.1138,0.5382,0.238,1.0764,0.3622,1.6042
	c0.0725,0.3105,0.1449,0.6107,0.2277,0.9108c0.2484,1.0867,0.5175,2.1735,0.8073,3.2499c0.2795,1.0971,0.5692,2.1942,0.8694,3.281
	c0.1656,0.6003,0.3415,1.2006,0.5175,1.8009c0.2173,0.7866,0.445,1.5629,0.6831,2.3495c0.3622,1.2317,0.7452,2.453,1.1385,3.6743
	c0.383,1.2317,0.7866,2.453,1.2006,3.664l1.273,3.757l3.8088-1.1074c0.8281-0.2381,1.656-0.4761,2.484-0.7039
	c0.7763-0.2173,1.5421-0.414,2.3184-0.6106c0.7038-0.1863,1.4179-0.3622,2.1217-0.5279c0.3209-0.0828,0.6314-0.1553,0.9523-0.2277
	c0.4968-0.1139,0.9832-0.2277,1.48-0.3416C127.7403,106.8022,127.8335,106.7815,127.9266,106.7608z"/>
<path d="M16.8706,182.192v46.5752h181.1674V182.192H16.8706z M193.8979,224.6272H21.0106V186.332h172.8873V224.6272z"/>
<path fill="none" d="M116.4484,208.8434H99.3501c0.9315-3.8606,4.4091-6.7275,8.5492-6.7275
	C112.0393,202.1159,115.5169,204.9828,116.4484,208.8434z"/>
<path fill="none" d="M198.0379,107.9614v72.1606h-89.1036v-55.8903h-2.07v55.8903H16.8706V16.5912h86.6507
	c0.3001-2.7428,0.6624-5.4855,1.0867-8.2283L10.319,9.8015L8.4353,232.9073h199.0832V110.7456
	C204.3825,109.7106,201.2153,108.7791,198.0379,107.9614z M198.0379,228.7672H16.8706V182.192h181.1674V228.7672z"/>
<path fill="#FBFAFB" d="M21.0106,186.332v38.2952h172.8873V186.332H21.0106z M120.8369,212.9834H94.9617v-2.07
	c0-7.1312,5.8064-12.9376,12.9376-12.9376c7.1312,0,12.9376,5.8064,12.9376,12.9376V212.9834z"/>
<path d="M107.8993,197.9758c-7.1312,0-12.9376,5.8064-12.9376,12.9376v2.07h25.8751v-2.07
	C120.8369,203.7822,115.0305,197.9758,107.8993,197.9758z M99.3501,208.8434c0.9315-3.8606,4.4091-6.7275,8.5492-6.7275
	c4.14,0,7.6176,2.8669,8.5491,6.7275H99.3501z"/>
</svg>
