<?xml version="1.0" encoding="utf-8"?>
<!-- Generator: Adobe Illustrator 19.2.1, SVG Export Plug-In . SVG Version: 6.00 Build 0)  -->
<svg version="1.1" id="Layer_3" xmlns="http://www.w3.org/2000/svg" xmlns:xlink="http://www.w3.org/1999/xlink" x="0px" y="0px"
	 width="500px" height="500px" viewBox="0 0 500 500" enable-background="new 0 0 500 500" xml:space="preserve">
<polygon fill="#8B9BB6" points="347,338 347,351.09 342.75,371.5 341.95,371.5 338.45,348.01 163.24,347.49 158.74,369.5 
	157.41,369.5 154.5,351.2 154.61,338 "/>
<path fill="#8B9BB6" d="M259.01,310.75h-16.52c0.9-3.73,4.26-6.5,8.26-6.5S258.11,307.02,259.01,310.75z"/>
<path fill="#4FBC85" d="M337.84,213.28V283h-86.09v-54h-2v54H162.8V125h83.72c0.29-2.65,0.64-5.3,1.05-7.95l-91.1,1.39L154.65,334
	H347V215.97C343.97,214.97,340.91,214.07,337.84,213.28z M337.84,330H162.8v-45h175.04V330z M254.88,122.5
	c-1.98,15.08-2.18,30.32-0.57,45.41c1.37,12.83,4.04,25.55,7.96,37.88c12.55-3.33,25.44-5.05,38.37-5.12c0.3,0,0.61-0.01,0.9-0.01
	c12.26,0,24.4,1.47,36.28,4.37L254.88,122.5z"/>
<path fill="#8B9BB6" d="M270.1,212.13c-3.24,7.74-10.86,12.87-19.35,12.87c-11.58,0-21-9.42-21-21c0-10.67,7.98-19.63,18.56-20.85
	l0.12-0.0099c0.03,0.16,0.06,0.31,0.09,0.47c0.14,0.8,0.29,1.61,0.45,2.41c0.1801,0.9301,0.3701,1.85,0.5601,2.77
	c0.02,0.08,0.03,0.17,0.06,0.25c0.21,1.03,0.43,2.05,0.68,3.07c0.11,0.52,0.23,1.04,0.35,1.55c0.07,0.3,0.14,0.59,0.22,0.88
	c0.24,1.05,0.5,2.1,0.78,3.14c0.27,1.06,0.55,2.12,0.84,3.17c0.16,0.58,0.33,1.16,0.5,1.74c0.21,0.76,0.43,1.51,0.66,2.27
	c0.35,1.19,0.72,2.37,1.1,3.55c0.3701,1.19,0.76,2.37,1.16,3.54l1.23,3.6299l3.68-1.0699c0.8-0.23,1.6-0.46,2.4-0.6801
	c0.75-0.21,1.49-0.4,2.24-0.59c0.68-0.18,1.37-0.35,2.05-0.51c0.31-0.08,0.61-0.15,0.92-0.22c0.48-0.11,0.95-0.22,1.43-0.33
	C269.92,212.16,270.01,212.14,270.1,212.13z"/>
<path d="M245.58,135.99c0.14-2.33,0.31-4.66,0.53-6.99C245.88,131.33,245.71,133.66,245.58,135.99z M245.59,159.34
	c0,0.14,0.0099,0.28,0.02,0.43c0.01,0.23,0.03,0.45,0.04,0.6801c0.0099,0.23,0.03,0.45,0.05,0.68
	C245.66,160.53,245.62,159.94,245.59,159.34z M245.57,158.97c-0.03-0.58-0.07-1.16-0.1-1.74c0.01,0.16,0.01,0.32,0.02,0.49
	c0.02,0.54,0.05,1.07,0.1,1.62C245.58,159.21,245.57,159.09,245.57,158.97z M245.4,155.49c-0.01-0.11-0.02-0.22-0.02-0.33
	c0.01,0.42,0.03,0.83,0.05,1.25C245.42,156.1,245.41,155.8,245.4,155.49z M245.26,150.56c0,0.28,0,0.56,0.01,0.84
	c0-0.0099,0.01-0.03,0.01-0.05C245.28,151.08,245.27,150.82,245.26,150.56z"/>
<path d="M252.63,108.97l-104.1,1.59l-2.03,240.91v0.33l4.09,25.7h14.67l4.5-21.99l161.79,0.48l3.5,23.51h14.2l5.75-27.59V210.84
	L252.63,108.97z M254.88,122.5l82.94,82.53c-11.88-2.9-24.02-4.37-36.28-4.37c-0.29,0-0.6,0.01-0.9,0.01
	c-12.93,0.07-25.82,1.79-38.37,5.12c-3.92-12.33-6.59-25.05-7.96-37.88C252.7,152.82,252.9,137.58,254.88,122.5z M333.84,212.3V279
	h-78.09v-50.51c8.12-1.66,15.01-7.29,18.17-15.12l0.87-2.2c8.54-1.62,17.21-2.45,25.9-2.5C311.86,208.59,322.96,209.81,333.84,212.3
	z M248.43,183.14c0.03,0.16,0.06,0.31,0.09,0.47c0.14,0.8,0.29,1.61,0.45,2.41c0.1801,0.9301,0.3701,1.85,0.5601,2.77
	c0.02,0.08,0.03,0.17,0.06,0.25c0.21,1.03,0.43,2.05,0.68,3.07c0.11,0.52,0.23,1.04,0.35,1.55c0.07,0.3,0.14,0.59,0.22,0.88
	c0.24,1.05,0.5,2.1,0.78,3.14c0.27,1.06,0.55,2.12,0.84,3.17c0.16,0.58,0.33,1.16,0.5,1.74c0.21,0.76,0.43,1.51,0.66,2.27
	c0.35,1.19,0.72,2.37,1.1,3.55c0.3701,1.19,0.76,2.37,1.16,3.54l1.23,3.6299l3.68-1.0699c0.8-0.23,1.6-0.46,2.4-0.6801
	c0.75-0.21,1.49-0.4,2.24-0.59c0.68-0.18,1.37-0.35,2.05-0.51c0.31-0.08,0.61-0.15,0.92-0.22c0.48-0.11,0.95-0.22,1.43-0.33
	c0.09-0.02,0.18-0.04,0.27-0.06v0.01c-3.24,7.74-10.86,12.87-19.35,12.87c-11.58,0-21-9.42-21-21c0-10.67,7.98-19.63,18.56-20.85
	L248.43,183.14z M245.78,179.5c-11.5601,2.32-20.03,12.51-20.03,24.5c0,12.07,8.6,22.17,20,24.5V279H166.8V129h79.31
	c-0.22,2.33-0.39,4.66-0.53,6.99c-0.09,1.55-0.16,3.11-0.22,4.67c-0.02,0.77-0.05,1.55-0.07,2.33c-0.0099,0.78-0.03,1.56-0.04,2.33
	c-0.01,0.79-0.01,1.59-0.01,2.38v0.68c0,0.47,0.01,0.93,0.01,1.39c0.01,0.27,0.01,0.53,0.01,0.79c0.01,0.26,0.02,0.52,0.02,0.79
	c0,0.02-0.01,0.04-0.01,0.05c0,0.01,0,0.01,0,0.01c0,0.01,0,0.01,0,0.02s0,0.01,0,0.02c0,0.05,0,0.1,0.01,0.16
	c0.0099,0.5,0.02,1,0.03,1.49c0.02,0.69,0.05,1.38,0.07,2.06c0,0.11,0.01,0.22,0.02,0.33c0.0099,0.31,0.02,0.61,0.03,0.92
	c0.01,0.16,0.02,0.33,0.02,0.49c0.01,0.06,0.01,0.12,0.01,0.18c0.0099,0.05,0.0099,0.1,0.0099,0.15c0.03,0.58,0.07,1.16,0.1,1.74
	c0,0.12,0.01,0.24,0.02,0.37c0.03,0.6,0.0699,1.19,0.11,1.79c0,0.07,0,0.14,0.01,0.21c0.04,0.53,0.08,1.05,0.12,1.58
	c0,0.06,0.01,0.12,0.01,0.18c0.14,1.89,0.3199,3.77,0.52,5.66c0.14,1.27,0.28,2.54,0.44,3.81c0.09,0.68,0.18,1.36,0.27,2.04
	c0.09,0.68,0.19,1.36,0.29,2.04c0.06,0.42,0.13,0.84,0.19,1.25c0.07,0.42,0.13,0.84,0.2,1.26L245.78,179.5z M347,351.09l-4.25,20.41
	h-0.8l-3.5-23.49l-175.21-0.52l-4.5,22.01h-1.33l-2.91-18.3l0.11-13.2H347V351.09z M347,334H154.65l1.8199-215.56l91.1-1.39
	c-0.41,2.65-0.76,5.3-1.05,7.95H162.8v158h86.95v-54h2v54h86.09v-69.72c3.0699,0.79,6.1299,1.69,9.16,2.69V334z"/>
<path fill="#FBFAFB" d="M333.84,212.3V279h-78.09v-50.51c8.12-1.66,15.01-7.29,18.17-15.12l0.87-2.2c8.54-1.62,17.21-2.45,25.9-2.5
	C311.86,208.59,322.96,209.81,333.84,212.3z"/>
<path fill="#FBFAFB" d="M225.75,204c0,12.07,8.6,22.17,20,24.5V279H166.8V129h79.31c-0.23,2.33-0.4,4.66-0.53,6.99
	c-0.09,1.55-0.16,3.11-0.22,4.67c-0.02,0.77-0.05,1.55-0.07,2.33c-0.0099,0.78-0.03,1.56-0.04,2.33c-0.01,0.79-0.01,1.59-0.01,2.38
	v0.68c0,0.47,0.01,0.93,0.01,1.39c0.01,0.27,0.01,0.53,0.01,0.79c0,0.28,0,0.56,0.01,0.84c0,0.01,0,0.01,0,0.01
	c0,0.01,0,0.01,0,0.02s0,0.01,0,0.02c0,0.05,0,0.1,0.01,0.16c0.0099,0.5,0.02,1,0.03,1.49c0.02,0.69,0.05,1.38,0.07,2.06
	c0.01,0.42,0.03,0.83,0.05,1.25c0.01,0.16,0.02,0.33,0.02,0.49c0.01,0.06,0.01,0.12,0.01,0.18c0.0099,0.05,0.0099,0.1,0.0099,0.15
	c0.01,0.16,0.01,0.32,0.02,0.49c0.02,0.54,0.05,1.07,0.1,1.62c0,0.14,0.0099,0.28,0.02,0.43c0.01,0.23,0.03,0.45,0.04,0.6801
	c0.0099,0.23,0.03,0.45,0.05,0.68c0,0.07,0,0.14,0.01,0.21c0.04,0.53,0.08,1.05,0.12,1.58c0,0.06,0.01,0.12,0.01,0.18
	c0.14,1.89,0.3199,3.77,0.52,5.66c0.14,1.27,0.28,2.54,0.44,3.81c0.09,0.68,0.18,1.36,0.27,2.04c0.09,0.68,0.19,1.36,0.29,2.04
	c0.06,0.42,0.13,0.84,0.19,1.25c0.07,0.42,0.13,0.84,0.2,1.26l-1.97,0.34C234.22,181.82,225.75,192.01,225.75,204z"/>
<polygon fill="none" points="347,338 347,351.09 342.75,371.5 341.95,371.5 338.45,348.01 163.24,347.49 158.74,369.5 157.41,369.5 
	154.5,351.2 154.61,338 "/>
<path fill="none" d="M245.28,151.35c0,0.02-0.01,0.04-0.01,0.05c-0.01-0.28-0.01-0.56-0.01-0.84
	C245.27,150.82,245.28,151.08,245.28,151.35z"/>
<path fill="none" d="M245.43,156.41c-0.02-0.42-0.04-0.83-0.05-1.25c0,0.11,0.01,0.22,0.02,0.33
	C245.41,155.8,245.42,156.1,245.43,156.41z"/>
<path fill="none" d="M245.59,159.34c-0.05-0.55-0.08-1.08-0.1-1.62c0.03,0.41,0.05,0.83,0.08,1.25
	C245.57,159.09,245.58,159.21,245.59,159.34z"/>
<path fill="none" d="M246.11,129c-0.22,2.33-0.39,4.66-0.53,6.99C245.71,133.66,245.88,131.33,246.11,129z"/>
<path fill="none" d="M270.1,212.12v0.01c-3.24,7.74-10.86,12.87-19.35,12.87c-11.58,0-21-9.42-21-21c0-10.67,7.98-19.63,18.56-20.85
	l0.12-0.0099c0.03,0.16,0.06,0.31,0.09,0.47c0.14,0.8,0.29,1.61,0.45,2.41c0.1801,0.9301,0.3701,1.85,0.5601,2.77
	c0.02,0.08,0.03,0.17,0.06,0.25c0.21,1.03,0.43,2.05,0.68,3.07c0.11,0.52,0.23,1.04,0.35,1.55c0.07,0.3,0.14,0.59,0.22,0.88
	c0.24,1.05,0.5,2.1,0.78,3.14c0.27,1.06,0.55,2.12,0.84,3.17c0.16,0.58,0.33,1.16,0.5,1.74c0.21,0.76,0.43,1.51,0.66,2.27
	c0.35,1.19,0.72,2.37,1.1,3.55c0.3701,1.19,0.76,2.37,1.16,3.54l1.23,3.6299l3.68-1.0699c0.8-0.23,1.6-0.46,2.4-0.6801
	c0.75-0.21,1.49-0.4,2.24-0.59c0.68-0.18,1.37-0.35,2.05-0.51c0.31-0.08,0.61-0.15,0.92-0.22c0.48-0.11,0.95-0.22,1.43-0.33
	C269.92,212.16,270.01,212.14,270.1,212.12z"/>
<path d="M162.8,285v45h175.04v-45H162.8z M333.84,326H166.8v-37h167.04V326z"/>
<path fill="none" d="M259.01,310.75h-16.52c0.9-3.73,4.26-6.5,8.26-6.5S258.11,307.02,259.01,310.75z"/>
<path fill="none" d="M337.84,213.28V283h-86.09v-54h-2v54H162.8V125h83.72c0.29-2.65,0.64-5.3,1.05-7.95l-91.1,1.39L154.65,334H347
	V215.97C343.97,214.97,340.91,214.07,337.84,213.28z M337.84,330H162.8v-45h175.04V330z"/>
<path fill="#FBFAFB" d="M166.8,289v37h167.04v-37H166.8z M263.25,314.75h-25v-2c0-6.89,5.61-12.5,12.5-12.5s12.5,5.61,12.5,12.5
	V314.75z"/>
<path d="M250.75,300.25c-6.89,0-12.5,5.61-12.5,12.5v2h25v-2C263.25,305.86,257.64,300.25,250.75,300.25z M242.49,310.75
	c0.9-3.73,4.26-6.5,8.26-6.5s7.36,2.77,8.26,6.5H242.49z"/>
</svg>
